<svg xmlns="http://www.w3.org/2000/svg" xmlns:svg="http://www.w3.org/2000/svg" xmlns:xlink="http://www.w3.org/1999/xlink" id="svg2" width="299.801" height="261.963" version="1.1"><defs id="defs4"><linearGradient id="linearGradient2553" x1="33.431" x2="21.748" y1="31.965" y2="11.781" gradientUnits="userSpaceOnUse" xlink:href="#linearGradient2555"/><linearGradient id="linearGradient4272" x1="23.688" x2="23.688" y1="11.319" y2="26.357" gradientUnits="userSpaceOnUse" xlink:href="#linearGradient4274"/><radialGradient id="radialGradient4270" cx="23.202" cy="27.096" r="23.555" fx="23.202" fy="27.096" gradientTransform="matrix(1,0,0,0.651032,0,9.455693)" gradientUnits="userSpaceOnUse" xlink:href="#linearGradient4264"/><linearGradient id="linearGradient4260" x1="12.378" x2="44.096" y1="4.433" y2="47.621" gradientUnits="userSpaceOnUse" xlink:href="#linearGradient4254"/><radialGradient id="radialGradient4250" cx="15.571" cy="2.959" r="20.936" fx="15.571" fy="2.959" gradientTransform="matrix(1.286242,0.781698,-0.710782,1.169552,-2.354348,-4.876862)" gradientUnits="userSpaceOnUse" xlink:href="#linearGradient4244"/><linearGradient id="linearGradient4242" x1="12.277" x2="12.222" y1="37.206" y2="33.759" gradientUnits="userSpaceOnUse" xlink:href="#linearGradient4236"/><linearGradient id="linearGradient4234" x1="7.605" x2="36.183" y1="28.481" y2="40.944" gradientUnits="userSpaceOnUse" xlink:href="#linearGradient4228"/><linearGradient id="linearGradient4209" x1="7.063" x2="24.688" y1="35.281" y2="35.281" gradientTransform="translate(0.795493,-1.325821)" gradientUnits="userSpaceOnUse" xlink:href="#linearGradient4184"/><linearGradient id="linearGradient4184"><stop style="stop-color:#838383;stop-opacity:1" id="stop4186" offset="0"/><stop style="stop-color:#bbb;stop-opacity:0" id="stop4188" offset="1"/></linearGradient><linearGradient id="linearGradient4228"><stop style="stop-color:#bbb;stop-opacity:1" id="stop4230" offset="0"/><stop style="stop-color:#9f9f9f;stop-opacity:1" id="stop4232" offset="1"/></linearGradient><linearGradient id="linearGradient4236"><stop style="stop-color:#eee;stop-opacity:1" id="stop4238" offset="0"/><stop style="stop-color:#eee;stop-opacity:0" id="stop4240" offset="1"/></linearGradient><linearGradient id="linearGradient4244"><stop style="stop-color:#e4e4e4;stop-opacity:1" id="stop4246" offset="0"/><stop style="stop-color:#d3d3d3;stop-opacity:1" id="stop4248" offset="1"/></linearGradient><linearGradient id="linearGradient4254"><stop style="stop-color:#fff;stop-opacity:1" id="stop4256" offset="0"/><stop style="stop-color:#fff;stop-opacity:0" id="stop4258" offset="1"/></linearGradient><linearGradient id="linearGradient4264"><stop style="stop-color:#000;stop-opacity:1" id="stop4266" offset="0"/><stop style="stop-color:#000;stop-opacity:0" id="stop4268" offset="1"/></linearGradient><linearGradient id="linearGradient4274"><stop id="stop4276" offset="0" style="stop-color:#fff;stop-opacity:.25490198"/><stop id="stop4278" offset="1" style="stop-color:#fff;stop-opacity:1"/></linearGradient><linearGradient id="linearGradient2555"><stop style="stop-color:#fff;stop-opacity:1" id="stop2557" offset="0"/><stop id="stop2561" offset=".5" style="stop-color:#e6e6e6;stop-opacity:1"/><stop style="stop-color:#fff;stop-opacity:1" id="stop2563" offset=".75"/><stop id="stop2565" offset=".842" style="stop-color:#e1e1e1;stop-opacity:1"/><stop style="stop-color:#fff;stop-opacity:1" id="stop2559" offset="1"/></linearGradient><linearGradient id="linearGradient6715" x1="302.857" x2="302.857" y1="366.648" y2="609.505" gradientTransform="matrix(2.774389,0,0,1.969706,-1892.179,-872.8854)" gradientUnits="userSpaceOnUse" xlink:href="#linearGradient5048"/><linearGradient id="linearGradient5048"><stop id="stop5050" offset="0" style="stop-color:black;stop-opacity:0"/><stop style="stop-color:black;stop-opacity:1" id="stop5056" offset=".5"/><stop id="stop5052" offset="1" style="stop-color:black;stop-opacity:0"/></linearGradient><radialGradient id="radialGradient6717" cx="605.714" cy="486.648" r="117.143" fx="605.714" fy="486.648" gradientTransform="matrix(2.774389,0,0,1.969706,-1891.633,-872.8854)" gradientUnits="userSpaceOnUse" xlink:href="#linearGradient5060"/><linearGradient id="linearGradient5060"><stop id="stop5062" offset="0" style="stop-color:black;stop-opacity:1"/><stop id="stop5064" offset="1" style="stop-color:black;stop-opacity:0"/></linearGradient><radialGradient id="radialGradient6719" cx="605.714" cy="486.648" r="117.143" fx="605.714" fy="486.648" gradientTransform="matrix(-2.774389,0,0,1.969706,112.7623,-872.8854)" gradientUnits="userSpaceOnUse" xlink:href="#linearGradient5060"/><linearGradient id="linearGradient2249" x1="9.562" x2="14.767" y1="6.953" y2="14.2" gradientUnits="userSpaceOnUse" xlink:href="#linearGradient2243"/><radialGradient id="radialGradient9318" cx="20.764" cy="19.541" r="14.8" fx="20.764" fy="19.541" gradientTransform="matrix(0.449398,-0.216492,0.564416,1.171617,-1.432288,2.546108)" gradientUnits="userSpaceOnUse" xlink:href="#linearGradient9320"/><linearGradient id="linearGradient8582" x1="11.997" x2="17.774" y1="19.592" y2="16.235" gradientTransform="matrix(1.014891,0,0,1.00592,-0.331699,-0.140188)" gradientUnits="userSpaceOnUse" xlink:href="#linearGradient8576"/><linearGradient id="linearGradient15309" x1="10.615" x2="2.007" y1="28.123" y2="27.235" gradientTransform="matrix(1.1767,0,0,1.176702,-0.819769,-5.307055)" gradientUnits="userSpaceOnUse" xlink:href="#linearGradient15303"/><linearGradient id="linearGradient11653" x1="12.233" x2="16.871" y1="12.363" y2="17.111" gradientTransform="matrix(0.965926,0.262102,-0.258819,0.978177,2.957072,-5.939741)" gradientUnits="userSpaceOnUse" xlink:href="#linearGradient11647"/><linearGradient id="linearGradient7996" x1="16.929" x2="14.045" y1="34.011" y2="29" gradientTransform="matrix(0.866026,-0.5,0.861487,1.49214,-17.87951,-13.91085)" gradientUnits="userSpaceOnUse" xlink:href="#linearGradient5739"/><linearGradient id="linearGradient7994" x1="14.045" x2="14.045" y1="37.576" y2="29" gradientTransform="matrix(0.866026,-0.5,0.801305,1.3879,-12.8183,-11.14456)" gradientUnits="userSpaceOnUse" xlink:href="#linearGradient5739"/><linearGradient id="linearGradient7992" x1="15.097" x2="14.045" y1="36.968" y2="29" gradientTransform="matrix(0.866026,-0.5,0.843479,1.460948,-19.74053,-11.13423)" gradientUnits="userSpaceOnUse" xlink:href="#linearGradient5739"/><linearGradient id="linearGradient7990" x1="19.616" x2="18.486" y1="39.253" y2="29.909" gradientTransform="matrix(0.866026,-0.5,0.797961,1.38211,-15.72934,-9.277499)" gradientUnits="userSpaceOnUse" xlink:href="#linearGradient5739"/><linearGradient id="linearGradient7988" x1="9.105" x2="10.147" y1="38.828" y2="30.141" gradientTransform="matrix(0.866026,-0.5,0.797491,1.381294,-15.69909,-9.225099)" gradientUnits="userSpaceOnUse" xlink:href="#linearGradient5739"/><linearGradient id="linearGradient5739"><stop id="stop5741" offset="0" style="stop-color:#c4a000;stop-opacity:1"/><stop id="stop5743" offset="1" style="stop-color:#c4a000;stop-opacity:0"/></linearGradient><linearGradient id="linearGradient11647"><stop id="stop11649" offset="0" style="stop-color:#c17d10;stop-opacity:1"/><stop id="stop11651" offset="1" style="stop-color:#9b650c;stop-opacity:1"/></linearGradient><linearGradient id="linearGradient15303"><stop id="stop15305" offset="0" style="stop-color:#b30000;stop-opacity:1"/><stop style="stop-color:#ff5c5c;stop-opacity:1" id="stop15311" offset=".5"/><stop id="stop15307" offset="1" style="stop-color:#c30000;stop-opacity:1"/></linearGradient><radialGradient id="radialGradient3564" cx="22.571" cy="30.857" r="15.571" fx="22.571" fy="30.857" gradientTransform="matrix(1,0,0,0.651376,0,10.75754)" gradientUnits="userSpaceOnUse" xlink:href="#linearGradient3558"/><linearGradient id="linearGradient3558"><stop id="stop3560" offset="0" style="stop-color:#000;stop-opacity:1"/><stop id="stop3562" offset="1" style="stop-color:#000;stop-opacity:0"/></linearGradient><linearGradient id="linearGradient8576"><stop id="stop8578" offset="0" style="stop-color:#dac203;stop-opacity:1"/><stop style="stop-color:#fdec69;stop-opacity:1" id="stop8584" offset=".5"/><stop id="stop8580" offset="1" style="stop-color:#fdef7e;stop-opacity:1"/></linearGradient><linearGradient id="linearGradient9320"><stop style="stop-color:#fef088;stop-opacity:1" id="stop9322" offset="0"/><stop id="stop9324" offset=".5" style="stop-color:#fde63a;stop-opacity:1"/><stop style="stop-color:#dac203;stop-opacity:1" id="stop9326" offset="1"/></linearGradient><linearGradient id="linearGradient2243"><stop id="stop2245" offset="0" style="stop-color:#fff;stop-opacity:1"/><stop id="stop2247" offset="1" style="stop-color:#fff;stop-opacity:0"/></linearGradient></defs><metadata id="metadata7"/><g id="layer1" transform="translate(-59.38508,-184.89713)"><g id="layer2" transform="matrix(5.8191548,0,0,5.8191548,75.353401,196.68849)"><g id="g6707" transform="matrix(0.0245274,0,0,0.02086758,45.69054,36.1536)"><rect id="rect6709" width="1339.633" height="478.357" x="-1559.252" y="-150.697" style="opacity:.40206185;color:#000;fill:url(#linearGradient6715);fill-opacity:1;fill-rule:nonzero;stroke:none;stroke-width:1;marker:none;visibility:visible;display:inline;overflow:visible"/><path id="path6711" d="m -219.61876,-150.68038 c 0,0 0,478.33079 0,478.33079 142.874166,0.90045 345.40022,-107.16966 345.40014,-239.196175 0,-132.026537 -159.436816,-239.134595 -345.40014,-239.134615 z" style="opacity:.40206185;color:#000;fill:url(#radialGradient6717);fill-opacity:1;fill-rule:nonzero;stroke:none;stroke-width:1;marker:none;visibility:visible;display:inline;overflow:visible"/><path style="opacity:.40206185;color:#000;fill:url(#radialGradient6719);fill-opacity:1;fill-rule:nonzero;stroke:none;stroke-width:1;marker:none;visibility:visible;display:inline;overflow:visible" id="path6713" d="m -1559.2523,-150.68038 c 0,0 0,478.33079 0,478.33079 -142.8742,0.90045 -345.4002,-107.16966 -345.4002,-239.196175 0,-132.026537 159.4368,-239.134595 345.4002,-239.134615 z"/></g><path style="fill:none;stroke:#535353;stroke-width:2;stroke-linecap:round;stroke-linejoin:round;stroke-miterlimit:4;stroke-opacity:1;stroke-dasharray:none" id="path4196" d="m 11.28569,7.9626278 c -0.625,0 -1.031249,0.2901802 -1.281248,0.843753 -10e-7,0 -6.4687505,17.1035572 -6.4687505,17.1035572 0,0 -0.25,0.671559 -0.25,1.78125 0,0 0,9.649968 0,9.649968 0,1.082613 0.6577855,1.625002 1.65625,1.625 l 38.5624985,0 c 0.984853,0 1.59375,-0.71818 1.59375,-1.84375 l 0,-9.649968 c 0,0 0.105963,-0.770423 -0.09375,-1.3125 L 38.28569,8.9626314 C 38.101165,8.4507246 37.648785,7.9745331 37.16069,7.9626278 l -25.875,0 z"/><path style="fill:url(#linearGradient4234);fill-opacity:1;fill-rule:evenodd;stroke:none" id="path4170" d="m 3.2735915,26.996812 0.7646021,-0.692215 37.6096894,0.0625 3.462407,0.317298 0,10.438532 c 0,1.125569 -0.607018,1.843331 -1.591871,1.843331 l -38.5829876,0 c -0.9984647,0 -1.6618399,-0.542051 -1.6618399,-1.624664 l 0,-10.344782 z"/><path style="fill:url(#radialGradient4250);fill-opacity:1;fill-rule:evenodd;stroke:none" id="path3093" d="m 3.5490842,25.914404 c -0.7142857,1.464286 -6.156e-4,2.392857 1.0357143,2.392857 0,0 38.9999985,0 38.9999985,0 1.119047,-0.02381 1.845238,-1.011905 1.428571,-2.142858 L 38.299082,8.9537044 C 38.114558,8.4417976 37.64432,7.9656058 37.156225,7.9537008 l -25.857142,0 c -0.625,0 -1.035714,0.3035732 -1.285713,0.857146 0,0 -6.4642858,17.1035572 -6.4642858,17.1035572 z"/><rect style="color:#000;fill:url(#linearGradient4209);fill-opacity:1;fill-rule:evenodd;stroke:none;stroke-width:2.40899992;marker:none;visibility:visible;display:inline;overflow:visible" id="rect4174" width="17.625" height="5.563" x="7.858" y="31.174"/><path style="opacity:.81142853;fill:url(#linearGradient4242);fill-opacity:1;fill-rule:evenodd;stroke:none" id="path4194" d="m 7.8579947,36.73668 c 0,0 0,-4.011485 0,-4.011485 1.8355274,3.179226 8.2964903,4.011485 12.9374973,4.011485 0,0 -12.9374973,0 -12.9374973,0 z"/><path style="fill:#fff;fill-opacity:1;fill-rule:evenodd;stroke:none" id="path4201" d="m 44.796162,25.628688 c 0.06352,1.249974 -0.414003,2.31584 -1.322116,2.34375 0,0 -38.1187164,-1e-6 -38.1187163,0 -1.2892319,0 -1.867736,-0.324947 -2.0840507,-0.868056 0.091761,0.944332 0.8258174,1.649306 2.0840507,1.649306 -1e-7,-1e-6 38.1187163,0 38.1187163,0 1.076007,-0.03307 1.752805,-1.424024 1.352164,-2.994791 l -0.03005,-0.130209 z"/><path style="opacity:.69142857;color:#000;fill:url(#linearGradient4272);fill-opacity:1;fill-rule:evenodd;stroke:none;stroke-width:2;marker:none;visibility:visible;display:inline;overflow:visible" id="path4211" d="m 10.96875,10.15625 c -0.04608,0.200321 -0.1875,0.386797 -0.1875,0.59375 0,0.948605 0.59098,1.789474 1.34375,2.59375 0.240268,-0.154075 0.365117,-0.354408 0.625,-0.5 -0.940309,-0.816004 -1.553396,-1.716582 -1.78125,-2.6875 z m 26.65625,0 c -0.228727,0.969616 -0.842012,1.872426 -1.78125,2.6875 0.274144,0.153582 0.403988,0.36824 0.65625,0.53125 0.757262,-0.806656 1.3125,-1.673044 1.3125,-2.625 0,-0.206953 -0.141594,-0.393429 -0.1875,-0.59375 z m 2.1875,8.4375 c -0.613791,4.040111 -7.298613,7.25 -15.53125,7.25 -8.212254,1e-6 -14.8601499,-3.192786 -15.5,-7.21875 -0.032357,0.197132 -0.125,0.391882 -0.125,0.59375 3e-7,4.317947 6.989104,7.843751 15.625,7.84375 8.635896,0 15.656249,-3.525802 15.65625,-7.84375 0,-0.212924 -0.08905,-0.417356 -0.125,-0.625 z"/><path style="color:#000;fill:#fff;fill-opacity:.45762712;fill-rule:evenodd;stroke:none;stroke-width:2;marker:none;visibility:visible;display:inline;overflow:visible" id="path4224" d="m 8.5736699,25.593554 c 0,0.561378 -0.6133786,1.016466 -1.3700194,1.016466 -0.7566409,0 -1.3700195,-0.455088 -1.3700195,-1.016466 0,-0.561379 0.6133786,-1.016466 1.3700195,-1.016466 0.7566408,0 1.3700194,0.455087 1.3700194,1.016466 z" transform="translate(0.08838843,0.176776)"/><path id="path4226" d="m 8.5736699,25.593554 c 0,0.561378 -0.6133786,1.016466 -1.3700194,1.016466 -0.7566409,0 -1.3700195,-0.455088 -1.3700195,-1.016466 0,-0.561379 0.6133786,-1.016466 1.3700195,-1.016466 0.7566408,0 1.3700194,0.455087 1.3700194,1.016466 z" transform="translate(33.96705,0.08838804)" style="color:#000;fill:#fff;fill-opacity:.45762712;fill-rule:evenodd;stroke:none;stroke-width:2;marker:none;visibility:visible;display:inline;overflow:visible"/><path id="path4252" d="m 11.642515,8.4157227 c -0.601692,0 -0.992791,0.2793586 -1.233466,0.8122873 -10e-7,0 -6.4150149,16.590722 -6.4150149,16.590722 0,0 -0.2406768,0.646515 -0.2406768,1.714823 0,0 0,9.290096 0,9.290096 0,1.35474 0.4440561,1.626899 1.5944841,1.626899 l 37.6869046,0 c 1.323126,0 1.534316,-0.316397 1.534316,-1.837492 l 0,-9.290096 c 0,0 0.10201,-0.741691 -0.09025,-1.263553 L 37.885616,9.2534336 C 37.707973,8.7606171 37.334964,8.427184 36.865071,8.4157227 l -25.222556,0 z" style="fill:none;stroke:url(#linearGradient4260);stroke-width:1.00000024;stroke-linecap:round;stroke-linejoin:round;stroke-miterlimit:4;stroke-opacity:1;stroke-dasharray:none"/><path id="path4282" d="m 40.5,31.429166 0,5.020935" style="fill:none;stroke:#fff;stroke-width:1.00000048px;stroke-linecap:square;stroke-linejoin:miter;stroke-opacity:.42372885"/><path style="fill:none;stroke:#fff;stroke-width:1.00000048px;stroke-linecap:square;stroke-linejoin:miter;stroke-opacity:.42372885" id="path4284" d="m 38.5,31.488943 0,5.020935"/><path id="path4286" d="m 36.5,31.488943 0,5.020935" style="fill:none;stroke:#fff;stroke-width:1.00000048px;stroke-linecap:square;stroke-linejoin:miter;stroke-opacity:.42372885"/><path style="fill:none;stroke:#fff;stroke-width:1.00000048px;stroke-linecap:square;stroke-linejoin:miter;stroke-opacity:.42372885" id="path4288" d="m 34.5,31.488943 0,5.020935"/><path id="path4290" d="m 32.5,31.488943 0,5.020935" style="fill:none;stroke:#fff;stroke-width:1.00000048px;stroke-linecap:square;stroke-linejoin:miter;stroke-opacity:.42372885"/><path style="fill:none;stroke:#fff;stroke-width:1.00000048px;stroke-linecap:square;stroke-linejoin:miter;stroke-opacity:.42372885" id="path4292" d="m 30.5,31.488943 0,5.020935"/><path style="opacity:.09714284;fill:none;stroke:#000;stroke-width:1.00000048px;stroke-linecap:square;stroke-linejoin:miter;stroke-opacity:1" id="path4294" d="M 39.5,31.479065 39.5,36.5"/><path id="path4296" d="m 37.5,31.538842 0,5.020935" style="opacity:.09714284;fill:none;stroke:#000;stroke-width:1.00000048px;stroke-linecap:square;stroke-linejoin:miter;stroke-opacity:1"/><path style="opacity:.09714284;fill:none;stroke:#000;stroke-width:1.00000048px;stroke-linecap:square;stroke-linejoin:miter;stroke-opacity:1" id="path4298" d="m 35.5,31.538842 0,5.020935"/><path id="path4300" d="m 33.5,31.538842 0,5.020935" style="opacity:.09714284;fill:none;stroke:#000;stroke-width:1.00000048px;stroke-linecap:square;stroke-linejoin:miter;stroke-opacity:1"/><path style="opacity:.09714284;fill:none;stroke:#000;stroke-width:1.00000048px;stroke-linecap:square;stroke-linejoin:miter;stroke-opacity:1" id="path4302" d="m 31.5,31.538842 0,5.020935"/><path style="opacity:.43999999;fill:#fff;fill-opacity:1;fill-rule:evenodd;stroke:none" id="path4572" d="m 7.875,31.1875 0,5.53125 12.5625,0 L 8.21875,36.375 7.875,31.1875 z"/><path id="path2545" d="m 39.875,19.5625 c 0,3.693404 -6.659764,6.6875 -14.875,6.6875 -8.215236,0 -14.875,-2.994096 -14.875,-6.6875 0,-3.693404 6.659764,-6.6875 14.875,-6.6875 8.215236,0 14.875,2.994096 14.875,6.6875 z" transform="matrix(1.037815,0,0,1.060747,-1.632878,-2.094626)" style="opacity:.20571427;color:#000;fill:url(#linearGradient2553);fill-opacity:1;fill-rule:evenodd;stroke:none;stroke-width:.93365198;marker:none;visibility:visible;display:inline;overflow:visible"/></g><g id="layer1-3" transform="matrix(5.2048272,0,0,5.2048272,46.621496,190.0721)"><path id="path3556" d="m 38.142857,30.857143 c 0,5.601746 -6.971566,10.142858 -15.571429,10.142858 C 13.971566,41.000001 7,36.458889 7,30.857143 7,25.255398 13.971566,20.714286 22.571428,20.714286 c 8.599863,0 15.571429,4.541112 15.571429,10.142857 z" transform="matrix(1.43578,0,0,0.825704,-5.05046,13.43182)" style="opacity:.47368421;color:#000;fill:url(#radialGradient3564);fill-opacity:1;fill-rule:nonzero;stroke:none;stroke-width:1;marker:none;visibility:visible;display:inline;overflow:visible"/><path id="path7966" d="m 6.9163118,1.7780186 c 1.7297758,-0.8780595 4.1259252,0.0035 5.0117902,1.5573199 l 4.170239,9.4847145 c 0.885865,1.55382 0.633416,3.369304 -0.566029,4.070586 -1.199445,0.701283 -2.878233,0.01494 -3.764099,-1.538881 L 5.8497502,6.9960305 C 4.9638854,5.4422066 5.2207536,2.6387087 6.9163118,1.7780186 z" style="fill:url(#linearGradient11653);fill-opacity:1;fill-rule:evenodd;stroke:#8f5902;stroke-width:1.00632107;stroke-linecap:round;stroke-linejoin:miter;stroke-miterlimit:4;stroke-opacity:1;stroke-dashoffset:0"/><path id="path14575" d="M 7.4462701,2.7359104 C 8.8682231,1.9500906 10.266975,2.5431693 11.141568,4.0752981 L 15.589706,14.162023 13.158185,15.581885 6.8615741,6.7615491 C 5.9869811,5.2294205 5.9853271,3.5432766 7.4462701,2.7359104 z" style="opacity:.42307691;fill:none;stroke:url(#linearGradient2249);stroke-width:1.00569046;stroke-linecap:round;stroke-linejoin:miter;stroke-miterlimit:4;stroke-opacity:1;stroke-dashoffset:0"/><path id="path7968" d="m 14.780848,22.793567 c -0.795495,4.286835 0.633966,13.952501 6.259233,19.693997 4.346754,0.141291 13.990091,-3.417681 20.531095,-10.197038 C 32.335,27.773816 26.034647,16.567549 21.135869,19.007852 l -6.355021,3.785715 z" style="fill:url(#radialGradient9318);fill-opacity:1;fill-rule:evenodd;stroke:#c4a000;stroke-width:1.00000048;stroke-linecap:butt;stroke-linejoin:miter;stroke-miterlimit:4;stroke-opacity:1;stroke-dasharray:none"/><path id="path7972" d="m 16.338359,24.367274 c 2.349016,6.270271 2.489443,12.788302 7.183783,17.919884" style="fill:none;stroke:url(#linearGradient7988);stroke-width:.99999988;stroke-linecap:round;stroke-linejoin:miter;stroke-miterlimit:4;stroke-opacity:1;stroke-dasharray:none"/><path id="path7970" d="M 15.91878,23.414124 C 15.006687,23.922228 15.758401,35.934338 21.503034,41.414491 28.88902,41.227594 37.02675,35.018304 39.895986,32.576645 30.39657,26.592523 24.971183,17.814876 21.415196,20.003061 l -5.496416,3.411063 z" style="opacity:.46153846;fill:none;stroke:#fff;stroke-width:.99999976;stroke-linecap:butt;stroke-linejoin:miter;stroke-miterlimit:4;stroke-opacity:1;stroke-dasharray:none"/><path id="path7974" d="m 23.848485,22.273332 c 0.866361,-0.749 5.75002,6.087667 14.998501,12.381801" style="fill:none;stroke:url(#linearGradient7990);stroke-width:.9999997;stroke-linecap:round;stroke-linejoin:miter;stroke-miterlimit:4;stroke-opacity:1;stroke-dasharray:none"/><path id="path7976" d="m 18.012893,22.863921 c 3.71231,5.347495 2.96299,12.424255 8.840816,18.08111" style="fill:none;stroke:url(#linearGradient7992);stroke-width:1.00000024;stroke-linecap:round;stroke-linejoin:miter;stroke-miterlimit:4;stroke-opacity:1;stroke-dasharray:none"/><path id="path7978" d="m 22.983898,22.775821 c 0,0 8.17673,13.071629 11.181934,15.104561" style="fill:none;stroke:url(#linearGradient7994);stroke-width:1.00000024;stroke-linecap:round;stroke-linejoin:miter;stroke-miterlimit:4;stroke-opacity:1;stroke-dasharray:none"/><path id="path7980" d="m 19.300308,22.200695 c 3.447146,2.916815 8.702557,14.163188 11.310014,17.47775" style="fill:none;stroke:url(#linearGradient7996);stroke-width:1.00000012;stroke-linecap:round;stroke-linejoin:miter;stroke-miterlimit:4;stroke-opacity:1;stroke-dasharray:none"/><path id="path7982" d="M 8.5089452,18.061866 19.970616,11.50296 c 0.59865,2.382571 -0.34184,3.240585 1.79595,7.147713 l -7.910292,4.52664 c -1.453428,-3.47742 -3.564886,-3.410298 -5.3473288,-5.115447 z" style="fill:url(#linearGradient8582);fill-opacity:1;fill-rule:evenodd;stroke:#c4a000;stroke-width:1.01039541;stroke-linecap:round;stroke-linejoin:round;stroke-miterlimit:4;stroke-opacity:1;stroke-dasharray:none;stroke-dashoffset:0"/><path id="path11655" d="M 14.043449,21.245689 C 13.229488,19.824472 11.481136,19.009347 10.36413,18.11846 l 8.757422,-4.933738 c -0.01959,1.480968 0.566905,3.088206 0.875611,4.518667 l -5.953714,3.5423 z" style="opacity:.2472527;fill:none;stroke:#fff;stroke-width:1;stroke-linecap:butt;stroke-linejoin:miter;stroke-miterlimit:4;stroke-opacity:1;stroke-dasharray:none"/><rect id="rect7984" width="13.015" height="3.46" x="-1.413" y="24.175" rx="1" ry="1" transform="matrix(0.866025,-0.500001,0.5,0.866026,0,0)" style="fill:url(#linearGradient15309);fill-opacity:1;fill-rule:evenodd;stroke:#690000;stroke-width:.99999803;stroke-linecap:round;stroke-linejoin:miter;stroke-miterlimit:4;stroke-opacity:1;stroke-dasharray:none;stroke-dashoffset:0"/><path id="path10193" d="m -17.172594,4.0836182 c 0,1.1855202 -0.961054,2.1465742 -2.146574,2.1465742 -1.18552,0 -2.146574,-0.961054 -2.146574,-2.1465742 0,-1.1855203 0.961054,-2.1465743 2.146574,-2.1465743 1.18552,0 2.146574,0.961054 2.146574,2.1465743 z" transform="matrix(0.583557,0.156364,-0.156364,0.583557,20.45782,5.158782)" style="fill:#fff;fill-opacity:1;fill-rule:evenodd;stroke:#8f5902;stroke-width:1.65524161;stroke-linecap:round;stroke-linejoin:round;stroke-miterlimit:4;stroke-opacity:1;stroke-dasharray:none;stroke-dashoffset:0"/><path id="path3558" d="m 27.734834,40.555239 c 0,0 1.506584,-0.500648 2.176098,-0.941755 -1.237437,-1.944544 -3.403341,-5.895665 -5.403126,-8.87592 1.193243,6.540738 3.227028,9.817675 3.227028,9.817675 z" style="opacity:.31730772;fill:#fff;fill-opacity:1;fill-rule:evenodd;stroke:none"/><path id="path3560" d="M 31.141805,39.05827 33.167803,37.9731 C 31.223259,36.116945 25.699306,27.857202 25.699306,27.857202 l 5.442499,11.201068 z" style="opacity:.31730772;fill:#fff;fill-opacity:1;fill-rule:evenodd;stroke:none"/><path id="path3562" d="m 35.658522,36.387809 2.436371,-1.743752 c -3.181981,-1.325825 -11.58654,-9.880449 -11.58654,-9.880449 2.382935,3.011895 6.767234,8.612306 9.150169,11.624201 z" style="opacity:.31730772;fill:#fff;fill-opacity:1;fill-rule:evenodd;stroke:none"/><path id="path3565" d="M 39.153689,33.917208 40.846002,32.5077 c -3.314563,-1.502602 -12.495677,-9.912017 -12.495677,-9.912017 0,0 6.074587,9.200205 10.803364,11.321525 z" style="opacity:.31730772;fill:#fff;fill-opacity:1;fill-rule:evenodd;stroke:none"/><path style="opacity:.31730766;fill:#fff;fill-opacity:1;fill-rule:evenodd;stroke:none" id="path2265" d="m 24.376076,41.571705 c 0,0 1.197225,-0.279677 2.043516,-0.455619 -1.458408,-1.237437 -3.801089,-4.437257 -5.093767,-8.610755 0.530331,6.894292 3.050251,9.066374 3.050251,9.066374 z"/><path id="path2267" d="m 21.370872,41.969452 c 0,0 1.24802,-0.01368 1.24802,-0.01368 -2.298097,-2.519069 -3.138175,-5.365335 -4.430854,-9.40625 -0.132581,4.684583 3.182834,9.419926 3.182834,9.419926 z" style="opacity:.31730766;fill:#fff;fill-opacity:1;fill-rule:evenodd;stroke:none"/></g></g></svg>