<svg xmlns="http://www.w3.org/2000/svg" xmlns:xlink="http://www.w3.org/1999/xlink" width="120" height="120" version="1.1"><defs><linearGradient id="frame" x1="433.5" x2="433.5" y1="-185" y2="-277" gradientTransform="matrix(1 0 0 -1 -373.5 -177)" gradientUnits="userSpaceOnUse"><stop offset="0" stop-color="#29ABE2"/><stop offset=".476" stop-color="#28A9E1"/><stop offset=".664" stop-color="#23A2DC"/><stop offset=".801" stop-color="#1A96D4"/><stop offset=".913" stop-color="#0E85C9"/><stop offset="1" stop-color="#0071BC"/></linearGradient><filter id="blur" width="12" height="12" x="-10" y="-10"><feGaussianBlur in="SourceGraphic" stdDeviation="1"/></filter></defs><rect id="shadow" width="100" height="100" x="10" y="9" filter="url(#blur)" opacity=".5" rx="20" ry="20"/><rect width="100" height="50" x="10" y="58" fill="#115A91" rx="20" ry="20"/><rect width="100" height="92" x="10" y="8" fill="url(#frame)" rx="20" ry="20"/><rect width="76" height="68" x="22" y="20" fill="#fff" rx="10" ry="10"/><path id="shadow2" d="M57,28v12H43v26h14v13H30V28H57zM90,28v51H63V66h15V40H63V28H90z" filter="url(#blur)" opacity=".5" transform="translate(0, 1)"/><path id="brackets" fill="#4D4D4D" d="M57,28v12H43v26h14v13H30V28H57zM90,28v51H63V66h15V40H63V28H90z"/></svg>