<svg xmlns="http://www.w3.org/2000/svg" xmlns:xlink="http://www.w3.org/1999/xlink" width="128" height="128"><defs><linearGradient x1="110.969" x2="110.969" y1="976.3" y2="992.375" gradientUnits="userSpaceOnUse" xlink:href="#a"/><linearGradient id="a"><stop offset="0" stop-color="#666"/><stop offset="1" stop-color="#333"/></linearGradient><linearGradient x1="121.306" x2="121.306" y1="976.378" y2="992.424" gradientTransform="matrix(1,0,0,1.00011,0,-0.10551)" gradientUnits="userSpaceOnUse" xlink:href="#a"/><linearGradient id="i" x1="110.969" x2="110.969" y1="976.3" y2="992.375" gradientTransform="matrix(1.00399,0,0,1.00959,-1.49914,-9.36636)" gradientUnits="userSpaceOnUse" xlink:href="#a"/><linearGradient x1="294.343" x2="294.418" y1="256.581" y2="243.139" gradientTransform="matrix(7.97915,0,0,8.01241,-2383.61,-3106.53)" gradientUnits="userSpaceOnUse" xlink:href="#b"/><linearGradient id="b"><stop offset="0" stop-color="#b3b3b3"/><stop offset="1" stop-color="#e6e6e6"/></linearGradient><linearGradient x1="209.063" x2="209.063" y1="-755.388" y2="-781.623" gradientTransform="matrix(4.00013,0,0,4,-875.027,1971.85)" gradientUnits="userSpaceOnUse" xlink:href="#c"/><linearGradient id="c"><stop offset="0" stop-color="#fff" stop-opacity=".65"/><stop offset="1" stop-color="#fff" stop-opacity=".949"/></linearGradient><linearGradient x1="78.822" x2="144" y1="-1194.638" y2="-1194.638" gradientTransform="matrix(0.370572,0.370572,-0.707107,0.707107,-850.729,-344.471)" gradientUnits="userSpaceOnUse" xlink:href="#d"/><linearGradient id="d"><stop offset="0" stop-opacity="0"/><stop offset=".493"/><stop offset="1" stop-opacity="0"/></linearGradient><linearGradient x1="30.744" x2="144" y1="-1194.638" y2="-1194.638" gradientTransform="matrix(0.370572,0.370572,-0.707107,0.707107,-850.729,-327.471)" gradientUnits="userSpaceOnUse" xlink:href="#d"/><linearGradient x1="-17" x2="144" y1="-1194.638" y2="-1194.638" gradientTransform="matrix(0.677019,0,0,0.999984,-1146.13,1239.62)" gradientUnits="userSpaceOnUse" xlink:href="#d"/><linearGradient x1="-17" x2="144" y1="-1194.638" y2="-1194.638" gradientTransform="matrix(0.571429,0,0,0.999984,-37.2856,2238.26)" gradientUnits="userSpaceOnUse" xlink:href="#d"/><linearGradient x1="152" x2="113.882" y1="-1192.638" y2="-1230.756" gradientTransform="matrix(0.390244,0,0,0.390244,-19.3171,-584.218)" gradientUnits="userSpaceOnUse" xlink:href="#e"/><linearGradient id="e"><stop offset="0"/><stop offset=".455" stop-opacity=".361"/><stop offset="1" stop-opacity="0"/></linearGradient><linearGradient x1="30.744" x2="144" y1="-1194.638" y2="-1194.638" gradientTransform="matrix(0.370572,0.370572,-0.707107,0.707107,-852.729,-322.471)" gradientUnits="userSpaceOnUse" xlink:href="#f"/><linearGradient id="f"><stop offset="0" stop-opacity="0"/><stop offset=".493"/><stop offset="1" stop-opacity="0"/></linearGradient><linearGradient x1="-17" x2="144" y1="-1194.638" y2="-1194.638" gradientTransform="matrix(0.521722,0,0,1,-32.1306,146)" gradientUnits="userSpaceOnUse" xlink:href="#d"/><linearGradient x1="-17" x2="144" y1="-1194.638" y2="-1194.638" gradientTransform="matrix(0.677019,0,0,0.999984,-1146.13,1235.62)" gradientUnits="userSpaceOnUse" xlink:href="#d"/><linearGradient x1="-17" x2="144" y1="-1194.638" y2="-1194.638" gradientTransform="matrix(0.40062,0,0,0.999984,-1106.33,1150.62)" gradientUnits="userSpaceOnUse" xlink:href="#d"/><linearGradient x1="-17" x2="144" y1="-1194.638" y2="-1194.638" gradientTransform="matrix(0.40062,0,0,0.999984,-1106.33,1146.62)" gradientUnits="userSpaceOnUse" xlink:href="#d"/><linearGradient x1="152" x2="113.882" y1="-1192.638" y2="-1230.756" gradientTransform="matrix(0.390244,0,0,0.390244,-19.3171,-584.218)" gradientUnits="userSpaceOnUse" xlink:href="#e"/><linearGradient id="h" x1="121.306" x2="121.306" y1="976.378" y2="992.424" gradientTransform="matrix(1,0,0,1.00011,0,-0.10551)" gradientUnits="userSpaceOnUse" xlink:href="#a"/><linearGradient id="g" x1="110.969" x2="110.969" y1="976.3" y2="992.375" gradientUnits="userSpaceOnUse" xlink:href="#a"/><linearGradient id="j" x1="294.343" x2="294.418" y1="256.581" y2="243.139" gradientTransform="matrix(7.97915,0,0,8.01241,-2383.61,-3106.53)" gradientUnits="userSpaceOnUse" xlink:href="#b"/><linearGradient id="k" x1="209.063" x2="209.063" y1="-755.388" y2="-781.623" gradientTransform="matrix(4.00013,0,0,4,-875.027,1971.85)" gradientUnits="userSpaceOnUse" xlink:href="#c"/><linearGradient id="l" x1="78.822" x2="144" y1="-1194.638" y2="-1194.638" gradientTransform="matrix(0.370572,0.370572,-0.707107,0.707107,-850.729,-344.471)" gradientUnits="userSpaceOnUse" xlink:href="#d"/><linearGradient id="m" x1="30.744" x2="144" y1="-1194.638" y2="-1194.638" gradientTransform="matrix(0.370572,0.370572,-0.707107,0.707107,-850.729,-327.471)" gradientUnits="userSpaceOnUse" xlink:href="#d"/><linearGradient id="n" x1="-17" x2="144" y1="-1194.638" y2="-1194.638" gradientTransform="matrix(0.677019,0,0,0.999984,-1146.13,1239.62)" gradientUnits="userSpaceOnUse" xlink:href="#d"/><linearGradient id="o" x1="-17" x2="144" y1="-1194.638" y2="-1194.638" gradientTransform="matrix(0.571429,0,0,0.999984,-37.2856,2238.26)" gradientUnits="userSpaceOnUse" xlink:href="#d"/><linearGradient id="q" x1="30.744" x2="144" y1="-1194.638" y2="-1194.638" gradientTransform="matrix(0.370572,0.370572,-0.707107,0.707107,-852.729,-322.471)" gradientUnits="userSpaceOnUse" xlink:href="#f"/><linearGradient id="r" x1="-17" x2="144" y1="-1194.638" y2="-1194.638" gradientTransform="matrix(0.521722,0,0,1,-32.1306,146)" gradientUnits="userSpaceOnUse" xlink:href="#d"/><linearGradient id="s" x1="-17" x2="144" y1="-1194.638" y2="-1194.638" gradientTransform="matrix(0.677019,0,0,0.999984,-1146.13,1235.62)" gradientUnits="userSpaceOnUse" xlink:href="#d"/><linearGradient id="t" x1="-17" x2="144" y1="-1194.638" y2="-1194.638" gradientTransform="matrix(0.40062,0,0,0.999984,-1106.33,1150.62)" gradientUnits="userSpaceOnUse" xlink:href="#d"/><linearGradient id="u" x1="-17" x2="144" y1="-1194.638" y2="-1194.638" gradientTransform="matrix(0.40062,0,0,0.999984,-1106.33,1146.62)" gradientUnits="userSpaceOnUse" xlink:href="#d"/><linearGradient id="p" x1="152" x2="113.882" y1="-1192.638" y2="-1230.756" gradientTransform="matrix(0.390244,0,0,0.390244,-19.3171,-584.218)" gradientUnits="userSpaceOnUse" xlink:href="#e"/></defs><g transform="translate(-285.39097,-458.02534) translate(348.39088,1624.6549)"><g fill="url(#g)" font-family="Andale Mono"><path style="text-indent:0;text-align:start;line-height:normal;text-transform:none" fill="url(#h)" d="m 111,977.12331 0,14.50168 c 5e-5,0.52364 0.22641,0.74996 0.74999,0.75001 l 11.50001,0 c 0.52358,-5e-5 0.74994,-0.22637 0.74999,-0.75001 l 0,-8.98088 c 0.006,-0.26409 -0.0975,-0.52903 -0.28125,-0.71883 l -5.27042,-5.2707 c -0.18978,-0.18372 -0.45469,-0.2874 -0.71875,-0.28128 l -5.97958,0 c -0.51898,0 -0.75228,0.43576 -0.74999,0.75001 l 0,0 z" overflow="visible" transform="matrix(7.99984,0,0,7.9969,-938.982,-8974.56)"/><path style="text-indent:0;text-align:start;line-height:normal;text-transform:none" fill="url(#i)" d="m 120.32938,976.3765 c -0.33282,0.10664 -0.44483,0.61349 -0.18825,0.85184 l 3.01199,3.02879 c 0.27825,0.26531 0.83246,0.0383 0.84712,-0.34705 l 0,-3.02878 c -3e-5,-0.26431 -0.23916,-0.50477 -0.502,-0.5048 l -3.01199,0 c -0.0519,-0.008 -0.105,-0.008 -0.15687,0 l 0,0 z" overflow="visible" transform="matrix(7.99984,0,0,7.9969,-938.982,-8974.56)"/></g><path style="text-indent:0;text-align:start;line-height:normal;text-transform:none" fill="url(#j)" d="m -44.99976,-1160.6378 0,2 0,112 0,2 1.999997,0 88.000006,0 1.999997,0 0,-2 0,-70 0,-0.8752 -0.624971,-0.6248 -41.7500028,-42 -0.4999691,-0.5 -0.875016,0 -46.2500441,0 -1.999997,0 0,0 z" font-family="Andale Mono" overflow="visible"/><path fill="url(#k)" d="m -40.99984,-1156.6378 42.2350277,0 41.7649723,42 0,66 -84,0 0,-108 0,0 z"/><path fill="url(#l)" d="m 23.7072,-1159.5071 23.6621,23.6621 -0.7072,0.7072 L 23,-1158.8 l 0.7072,-0.7071 z" opacity=".25" overflow="visible"/><path fill="url(#m)" d="m 5.7072,-1160.5071 41.6621,41.6621 -0.7072,0.7072 L 5,-1159.8 l 0.7072,-0.7071 z" opacity=".25" overflow="visible"/><rect width="109" height="1" x="-1157.638" y="45" fill="url(#n)" opacity=".5" overflow="visible" transform="matrix(0,1,-1,0,0,0)"/><rect width="92" height="1" x="-47" y="1043.638" fill="url(#o)" opacity=".5" overflow="visible" transform="scale(-1,-1)"/><rect id="v" width="32" height="32" x="8" y="-1081.638" fill="url(#p)" opacity=".15" overflow="visible" transform="scale(-1,1)"/><path fill="url(#q)" d="m 3.7072,-1155.5071 41.6621,41.6621 -0.7072,0.7072 L 3,-1154.8 l 0.7072,-0.7071 z" opacity=".1" overflow="visible"/><rect width="83.997" height="1" x="-41" y="-1048.638" fill="url(#r)" opacity=".2" overflow="visible"/><rect width="109" height="1" x="-1157.638" y="41" fill="url(#s)" opacity=".2" overflow="visible" transform="matrix(0,1,-1,0,0,0)"/><rect width="64.5" height="1" x="-1113.138" y="-44" fill="url(#t)" opacity=".2" overflow="visible" transform="matrix(0,1,-1,0,0,0)"/><rect width="64.5" height="1" x="-1113.138" y="-48" fill="url(#u)" opacity=".5" overflow="visible" transform="matrix(0,1,-1,0,0,0)"/><use width="5033" height="1085" transform="matrix(-1,0,0,1,2,0)" xlink:href="#v"/></g></svg>