<svg xmlns="http://www.w3.org/2000/svg" xmlns:svg="http://www.w3.org/2000/svg" id="Layer_3" width="128" height="128" x="0" y="0" enable-background="new 0 0 16 16" version="1.1" viewBox="0 0 128 128" xml:space="preserve"><metadata id="metadata27"/><g id="g4155" transform="scale(8,8)"><rect style="opacity:.6;fill:#fff" id="rect3" width="14" height="14" x="1" y="1"/><polygon style="fill:#069" id="polygon5" points="7.5 13 7.5 8.5 3.5 4 12.5 4 8.5 8.5 8.5 13"/><g id="g7"><path style="fill:#069" id="path9" d="m 11,13.5 c 0,0.275 -0.225,0.5 -0.5,0.5 l -5,0 C 5.225,14 5,13.775 5,13.5 l 0,0 C 5,13.225 5.225,13 5.5,13 l 5,0 c 0.275,0 0.5,0.225 0.5,0.5 l 0,0 z"/></g><g id="g11"><path style="fill:#069" id="path13" d="M 9.525,5.146 C 9.331,5.34 9.012,5.34 8.818,5.146 8.624,4.952 8.624,4.633 8.818,4.439 l 2.121,-2.121 c 0.194,-0.194 0.513,-0.194 0.707,0 0.194,0.194 0.194,0.513 0,0.707 L 9.525,5.146 Z"/></g><polygon style="fill:#069" id="polygon15" points="1 4 0 4 0 0 4 0 4 1 1 1"/><polygon style="fill:#069" id="polygon17" points="4 15 4 16 0 16 0 12 1 12 1 15"/><polygon style="fill:#069" id="polygon19" points="15 12 16 12 16 16 12 16 12 15 15 15"/><polygon style="fill:#069" id="polygon21" points="12 1 12 0 16 0 16 4 15 4 15 1"/></g></svg>