<svg xmlns="http://www.w3.org/2000/svg" xmlns:svg="http://www.w3.org/2000/svg" id="svg2" width="128" height="128" version="1.1" viewBox="0 0 128 128" xml:space="preserve"><metadata id="metadata28"/><defs id="defs4"><linearGradient id="gradiant1" x1="0" x2="1" y1="0" y2="0" gradientTransform="matrix(0,97.396584,-97.396584,0,51.620814,11.389501)" gradientUnits="userSpaceOnUse" spreadMethod="pad"><stop id="stop7" offset="0" style="stop-color:#ff1b2d;stop-opacity:1"/><stop id="stop9" offset=".3" style="stop-color:#ff1b2d;stop-opacity:1"/><stop id="stop11" offset=".61" style="stop-color:#ff1b2d;stop-opacity:1"/><stop id="stop13" offset="1" style="stop-color:#a70014;stop-opacity:1"/></linearGradient><linearGradient id="gradiant2" x1="0" x2="1" y1="0" y2="0" gradientTransform="matrix(0,86.142511,-86.142511,0,76.85435,17.130095)" gradientUnits="userSpaceOnUse" spreadMethod="pad"><stop id="stop16" offset="0" style="stop-color:#9c0000;stop-opacity:1"/><stop id="stop18" offset=".7" style="stop-color:#ff4b4b;stop-opacity:1"/><stop id="stop20" offset="1" style="stop-color:#ff4b4b;stop-opacity:1"/></linearGradient></defs><g id="g4156" transform="scale(1.0666667,1.0666667)"><path id="path22" d="M 60,9.75 C 32.25,9.75 9.75,32.25 9.75,60 l 0,0 c 0,26.95 21.22,48.94 47.86,50.19 l 0,0 c 0.8,0.04 1.59,0.06 2.39,0.06 l 0,0 c 12.87,0 24.6,-4.84 33.49,-12.79 l 0,0 c -5.89,3.91 -12.78,6.15 -20.14,6.15 l 0,0 c -11.97,0 -22.68,-5.94 -29.89,-15.3 l 0,0 C 37.9,81.75 34.31,72.06 34.06,61.18 l 0,0 c 0,-0.03 0,-2.34 0,-2.37 l 0,0 c 0.25,-10.88 3.84,-20.58 9.4,-27.13 l 0,0 c 7.21,-9.36 17.93,-15.3 29.89,-15.3 l 0,0 c 7.36,0 14.25,2.25 20.14,6.16 l 0,0 C 84.65,14.63 72.98,9.8 60.19,9.75 l 0,0 c -0.06,0 -0.13,0 -0.19,0 z" style="fill:url(#gradiant1)"/><path id="path24" d="m 43.46,31.68 c 4.61,-5.44 10.57,-8.73 17.07,-8.73 l 0,0 c 14.63,0 26.49,16.59 26.49,37.04 l 0,0 c 0,20.46 -11.86,37.04 -26.49,37.04 l 0,0 c -6.51,0 -12.46,-3.28 -17.07,-8.72 l 0,0 c 7.21,9.36 17.92,15.3 29.89,15.3 l 0,0 c 7.36,0 14.25,-2.25 20.14,-6.15 l 0,0 C 103.78,88.26 110.25,74.89 110.25,60 l 0,0 c 0,-14.88 -6.47,-28.26 -16.76,-37.46 l 0,0 C 87.6,18.63 80.71,16.39 73.35,16.39 l 0,0 c -11.97,0 -22.68,5.94 -29.89,15.3" style="fill:url(#gradiant2)"/></g></svg>