<svg xmlns="http://www.w3.org/2000/svg" xmlns:svg="http://www.w3.org/2000/svg" id="svg2" width="512" height="512" version="1.1"><metadata id="metadata7"/><g id="layer1" transform="translate(0,-540.36218)"><path style="fill:#ffd459;fill-rule:evenodd;stroke:none" id="path2985" d="m 562.85715,-316.57144 c 0,198.82251 -161.17749,359.999998 -360,359.999998 -198.8225127,0 -360,-161.177488 -360,-359.999998 0,-198.82251 161.1774873,-360 360,-360 198.82251,0 360,161.17749 360,360 z" transform="matrix(0.69444444,0,0,0.69444444,115.12698,1016.2035)"/><path style="fill:#83b848;stroke:none;stroke-width:1px;stroke-linecap:butt;stroke-linejoin:miter;stroke-opacity:1;fill-opacity:1" id="path2994" d="M 432.78125 79.21875 L 79.21875 432.78125 C 124.45985 478.02235 186.96441 506 256 506 C 394.07119 506 506 394.07119 506 256 C 506 186.96441 478.02235 124.45985 432.78125 79.21875 z" transform="translate(0,540.36218)"/><path style="fill:#88a43b;fill-opacity:1;fill-rule:evenodd;stroke:none" id="path3770" d="M 432.78068,619.58528 C 240.54005,625.99616 85.238947,780.43978 79.254821,973.12046 271.49567,966.70979 426.7966,812.2661 432.78068,619.58528 z"/><path id="path3777" d="m 1155.6145,256.4314 a 49.497475,49.497475 0 1 1 -98.9949,0 49.497475,49.497475 0 1 1 98.9949,0 z" transform="matrix(1.4089098,0.01453207,-0.01453207,1.4089098,-1298.6616,417.53683)" style="fill:#83b848;fill-opacity:1;fill-rule:evenodd;stroke:none"/><path style="fill:#ffd459;fill-rule:evenodd;stroke:none" id="path3775" d="m 1155.6145,256.4314 a 49.497475,49.497475 0 1 1 -98.9949,0 49.497475,49.497475 0 1 1 98.9949,0 z" transform="matrix(0.75864372,0.00782496,-0.00782496,0.75864372,-581.11115,591.70431)"/><path style="fill:#83b848;fill-opacity:1;fill-rule:evenodd;stroke:none" id="path3779" d="m 1155.6145,256.4314 a 49.497475,49.497475 0 1 1 -98.9949,0 49.497475,49.497475 0 1 1 98.9949,0 z" transform="matrix(1.0063642,0.01038005,-0.01038005,1.0063642,-954.342,623.19374)"/><path id="path3781" d="m 1155.6145,256.4314 a 49.497475,49.497475 0 1 1 -98.9949,0 49.497475,49.497475 0 1 1 98.9949,0 z" transform="matrix(0.37158066,0.00383263,-0.00383263,0.37158066,-253.87608,793.21438)" style="fill:#ffd459;fill-rule:evenodd;stroke:none"/><path id="path3789" d="m 1155.6145,256.4314 a 49.497475,49.497475 0 1 1 -98.9949,0 49.497475,49.497475 0 1 1 98.9949,0 z" transform="matrix(1.0063642,0.01038005,-0.01038005,1.0063642,-755.35969,428.27429)" style="fill:#83b848;fill-opacity:1;fill-rule:evenodd;stroke:none"/><path style="fill:#ffd459;fill-rule:evenodd;stroke:none" id="path3791" d="m 1155.6145,256.4314 a 49.497475,49.497475 0 1 1 -98.9949,0 49.497475,49.497475 0 1 1 98.9949,0 z" transform="matrix(0.37158066,0.00383263,-0.00383263,0.37158066,-54.893767,598.29492)"/></g></svg>