<svg xmlns="http://www.w3.org/2000/svg" xmlns:svg="http://www.w3.org/2000/svg" xmlns:xlink="http://www.w3.org/1999/xlink" id="svg2" width="744" height="744" version="1.1" viewBox="0 16 744 744"><metadata id="metadata47"/><defs id="defs3"><linearGradient id="linearGradient624"><stop id="stop625" offset="0" style="stop-color:#b9e5ff;stop-opacity:.41964301"/><stop id="stop626" offset="1" style="stop-color:#fff;stop-opacity:1"/></linearGradient><linearGradient id="linearGradient619"><stop id="stop620" offset="0" style="stop-color:#66b8ff;stop-opacity:1"/><stop id="stop621" offset="1" style="stop-color:#00507a;stop-opacity:1"/></linearGradient><linearGradient id="linearGradient593"><stop id="stop594" offset="0" style="stop-color:#fff9db;stop-opacity:.73214298"/><stop id="stop595" offset="1" style="stop-color:#2c2c2c;stop-opacity:1"/></linearGradient><linearGradient id="linearGradient578"><stop id="stop579" offset="0" style="stop-color:#fff2bc;stop-opacity:1"/><stop id="stop580" offset="1" style="stop-color:#83560b;stop-opacity:1"/></linearGradient><linearGradient id="linearGradient581" x1=".431" x2=".566" y1=".359" y2=".469" xlink:href="#linearGradient578"/><linearGradient id="linearGradient590" x1=".531" x2="1.082" y1=".258" y2=".703" xlink:href="#linearGradient593"/><linearGradient id="linearGradient623" x1=".478" x2=".821" y1=".055" y2=".93" xlink:href="#linearGradient624"/><linearGradient id="linearGradient664" x1=".085" x2=".488" y1=".055" y2=".961" xlink:href="#linearGradient619"/></defs><path id="path653" d="m 711.25,257.36218 a 370,370 0 1 1 -740,0 370,370 0 1 1 740,0 z" transform="matrix(0.854246,0,0,0.873855,62.54055,163.805)" style="font-size:12px;fill:url(#linearGradient664);fill-opacity:1;fill-rule:evenodd;stroke:#000;stroke-width:15.35050011;stroke-opacity:1;stroke-dasharray:none"/><path id="path869" d="m 711.25,257.36218 a 370,370 0 1 1 -740,0 370,370 0 1 1 740,0 z" transform="matrix(0.832278,0,0,0.846654,71.65299,166.4905)" style="font-size:12px;fill:url(#linearGradient664);fill-opacity:1;fill-rule:evenodd;stroke:none"/><path id="path686" d="m 899.79341,228.58278 a 134.3503,81.317284 0 1 1 -268.70059,0 134.3503,81.317284 0 1 1 268.70059,0 z" transform="matrix(0.54666,0.459928,-0.508911,0.466767,319.9559,-324.0116)" style="font-size:12px;fill:#060000;fill-opacity:1;fill-rule:evenodd;stroke:#000;stroke-width:1pt"/><path id="path622" d="m 314.02616,633.10904 c 0,0 -86.23998,-136.49165 -19.30338,-274.3994 C 347.9212,247.85253 364.43212,145.78479 321.16276,73.569808 244.31733,83.148787 177.42134,122.4216 144.27654,155.95854 94.070726,204.88546 70.047451,256.17907 59.169288,292.03552 73.673505,468.84489 315.23484,636.81833 314.02616,633.10904 z" style="font-size:12px;fill:url(#linearGradient623);fill-opacity:.75;fill-rule:evenodd;stroke:#f6f7f7;stroke-width:.977983pt;stroke-opacity:.39285697"/><path id="hrot" d="M 336.09076,639.8747 C 333.80044,637.73485 448.81194,467.20742 589.40037,444.05202 589.83246,260.23343 674.35129,192.615 679.70122,181.10615 668.4051,120.03946 635.23858,96.975101 605.30364,92.116806 554.56633,85.650572 564.08908,108.41399 557.85521,114.4749 523.52259,192.00646 451.62029,301.45609 441.4715,321.02692 412.91571,360.59648 352.4433,555.88876 328.25542,639.48716 l 7.83534,0.38754 z" style="font-size:12px;fill:url(#linearGradient581);fill-rule:evenodd;stroke:#323232;stroke-width:5.63506985"/><path id="path583" d="m 151.875,355.48718 a 6.25,9.6875 0 1 1 -12.5,0 6.25,9.6875 0 1 1 12.5,0 z" transform="matrix(1.155716,0.773221,-1.325171,2.206503,751.112,-543.8246)" style="font-size:12px;fill:#665123;fill-rule:evenodd;stroke-width:1.25097001"/><path id="path585" d="m 437.91925,373.2363 -2.2523,-1.69167 c -2.59063,-1.94576 -89.45496,226.06339 -102.85956,266.91313 13.32139,-43.07345 91.7047,-247.25098 105.11186,-265.22146 z" style="font-size:12px;fill:#665123;fill-rule:evenodd;stroke:#665123;stroke-width:1.73912001"/><path id="path589" d="m 486.64859,450.08466 c 30.49706,-23.97635 43.93824,-43.48925 74.13311,-49.43597 -5.21641,-74.96907 52.40446,-165.49775 99.24338,-250.14813 l -8.43467,-15.22022 C 632.21505,164.62538 517.06962,375.47577 486.64859,450.08466 z" style="font-size:12px;fill:url(#linearGradient590);fill-rule:evenodd;stroke-width:1pt"/></svg>